##     ## ##    ## ####  #######  ##     ## ######## 
##     ## ###   ##  ##  ##     ## ##     ## ##       
##     ## ####  ##  ##  ##     ## ##     ## ##       
##     ## ## ## ##  ##  ##     ## ##     ## ######   
##     ## ##  ####  ##  ##  ## ## ##     ## ##       
##     ## ##   ###  ##  ##    ##  ##     ## ##       
 #######  ##    ## ####  ##### ##  #######  ######## 


#############Credits To DiNGiE & Unique#############


General
Complete name : The Wife He Met Online 2011 R5 x264 AAC-UNiQUE.mp4
Format : MPEG-4
Format profile : Base Media
Codec ID : isom
File size : 1.37 GiB
Duration : 1h 27mn
Overall bit rate mode : Variable
Overall bit rate : 2 244 Kbps
Encoded date : UTC 2012-08-31 21:29:13

Video
ID : 1
Format : AVC
Format/Info : Advanced Video Codec
Format profile : High@L4.1
Format settings, CABAC : Yes
Format settings, ReFrames : 3 frames
Codec ID : avc1
Codec ID/Info : Advanced Video Coding
Duration : 1h 27mn
Bit rate mode : Variable
Bit rate : 1 933 Kbps
Maximum bit rate : 40.0 Mbps
Width : 720 pixels
Height : 384 pixels
Display aspect ratio : 1.85:1
Frame rate mode : Constant
Frame rate : 25.000 fps
Color space : YUV
Chroma subsampling : 4:2:0
Bit depth : 8 bits
Scan type : Progressive
Bits/(Pixel*Frame) : 0.280
Stream size : 1.18 GiB (86%)☺
Writing library : x264 core 125 r2208 d9d2288

Audio
ID : 2
Format : AAC
Format/Info : Advanced Audio Codec
Format profile : LC
Codec ID : 40
Duration : 1h 27mn
Bit rate mode : Variable
Bit rate : 308 Kbps
Maximum bit rate : 356 Kbps
Channel(s) : 6 channels
Channel positions : Front: L C R, Side: L R, LFE
Sampling rate : 48.0 KHz
Compression mode : Lossy
Stream size : 192 MiB (14%)
Language : English
Encoded date : UTC 2012-08-31 21:29:36

Source : zhena.onlajn.2011.p.dvd5.ironclub - Thanks! 

Storyline
Bryant spends most of his time taking care of his daughter, and working as an exec at an ad agency. But when he comes across the online profile for a woman in Los Angeles, he becomes intrigued. SheΓÇÖs beautiful, fun, quirky, and successful. They strike up a long-distance relationship traveling back and forth for several months before Bryant decides that she is the perfect woman for him. He proposes, she moves across the country, and within two more months, the couple is married. But this union is a far cry from newlywed bliss.


iMDB: 
http://www.imdb.com/title/tt2072276

Screen Shots:
  
http://i.imgrz.com/J0KyF.png
 
http://i.imgrz.com/4so2e.png
 
http://i.imgrz.com/kfOTi.png
 
http://i.imgrz.com/YM1e.png
 
http://i.imgrz.com/hymsB.png
 
http://i.imgrz.com/1FT4q.png
 
http://i.imgrz.com/WK5od.png
 
http://i.imgrz.com/twjYm.png
 
http://i.imgrz.com/1njvh.png
 
http://i.imgrz.com/J92hQ.png

If screenshots are not visible then look at
the comment for screenshots


#############Credits To DiNGiE & Unique#############


##     ## ##    ## ####  #######  ##     ## ######## 
##     ## ###   ##  ##  ##     ## ##     ## ##       
##     ## ####  ##  ##  ##     ## ##     ## ##       
##     ## ## ## ##  ##  ##     ## ##     ## ######   
##     ## ##  ####  ##  ##  ## ## ##     ## ##       
##     ## ##   ###  ##  ##    ##  ##     ## ##       
 #######  ##    ## ####  ##### ##  #######  ######## 